<mxfile host="app.diagrams.net" agent="Mozilla/5.0 (Windows NT 10.0; Win64; x64) AppleWebKit/537.36 (KHTML, like Gecko) Chrome/132.0.0.0 Safari/537.36" version="26.0.11">
  <diagram id="R2lEEEUBdFMjLlhIrx00" name="Page-1">
    <mxGraphModel dx="1419" dy="2397" grid="1" gridSize="10" guides="1" tooltips="1" connect="1" arrows="1" fold="1" page="1" pageScale="1" pageWidth="850" pageHeight="1100" math="0" shadow="0" extFonts="Permanent Marker^https://fonts.googleapis.com/css?family=Permanent+Marker">
      <root>
        <mxCell id="0" />
        <mxCell id="1" parent="0" />
        <mxCell id="buUf2vuJPlwVmImWlEwj-42" value="&lt;font style=&quot;font-size: 18px;&quot;&gt;FACTS TABLE&lt;/font&gt;" style="swimlane;whiteSpace=wrap;html=1;" vertex="1" parent="1">
          <mxGeometry x="1395" y="420" width="200" height="260" as="geometry" />
        </mxCell>
        <mxCell id="buUf2vuJPlwVmImWlEwj-43" value="&lt;font style=&quot;forced-color-adjust: none; color: rgb(0, 0, 0); font-family: Helvetica; font-style: normal; font-variant-ligatures: normal; font-variant-caps: normal; font-weight: 400; letter-spacing: normal; orphans: 2; text-indent: 0px; text-transform: none; widows: 2; word-spacing: 0px; -webkit-text-stroke-width: 0px; white-space: nowrap; background-color: rgb(251, 251, 251); text-decoration-thickness: initial; text-decoration-style: initial; text-decoration-color: initial; line-height: 110%;&quot;&gt;patient-id&lt;/font&gt;&lt;div style=&quot;forced-color-adjust: none; color: rgb(0, 0, 0); font-family: Helvetica; font-style: normal; font-variant-ligatures: normal; font-variant-caps: normal; font-weight: 400; letter-spacing: normal; orphans: 2; text-indent: 0px; text-transform: none; widows: 2; word-spacing: 0px; -webkit-text-stroke-width: 0px; white-space: nowrap; background-color: rgb(251, 251, 251); text-decoration-thickness: initial; text-decoration-style: initial; text-decoration-color: initial; line-height: 110%;&quot;&gt;&lt;font style=&quot;forced-color-adjust: none; line-height: 110%;&quot;&gt;doctor-id&lt;/font&gt;&lt;/div&gt;&lt;div style=&quot;forced-color-adjust: none; color: rgb(0, 0, 0); font-family: Helvetica; font-style: normal; font-variant-ligatures: normal; font-variant-caps: normal; font-weight: 400; letter-spacing: normal; orphans: 2; text-indent: 0px; text-transform: none; widows: 2; word-spacing: 0px; -webkit-text-stroke-width: 0px; white-space: nowrap; background-color: rgb(251, 251, 251); text-decoration-thickness: initial; text-decoration-style: initial; text-decoration-color: initial; line-height: 110%;&quot;&gt;&lt;font style=&quot;forced-color-adjust: none; line-height: 110%;&quot;&gt;room-number&lt;/font&gt;&lt;/div&gt;&lt;div style=&quot;forced-color-adjust: none; color: rgb(0, 0, 0); font-family: Helvetica; font-style: normal; font-variant-ligatures: normal; font-variant-caps: normal; font-weight: 400; letter-spacing: normal; orphans: 2; text-indent: 0px; text-transform: none; widows: 2; word-spacing: 0px; -webkit-text-stroke-width: 0px; white-space: nowrap; background-color: rgb(251, 251, 251); text-decoration-thickness: initial; text-decoration-style: initial; text-decoration-color: initial; line-height: 110%;&quot;&gt;&lt;font style=&quot;forced-color-adjust: none; line-height: 110%;&quot;&gt;test-id&lt;/font&gt;&lt;/div&gt;&lt;div style=&quot;forced-color-adjust: none; color: rgb(0, 0, 0); font-family: Helvetica; font-style: normal; font-variant-ligatures: normal; font-variant-caps: normal; font-weight: 400; letter-spacing: normal; orphans: 2; text-indent: 0px; text-transform: none; widows: 2; word-spacing: 0px; -webkit-text-stroke-width: 0px; white-space: nowrap; background-color: rgb(251, 251, 251); text-decoration-thickness: initial; text-decoration-style: initial; text-decoration-color: initial; line-height: 110%;&quot;&gt;&lt;font style=&quot;forced-color-adjust: none; line-height: 110%;&quot;&gt;diagnosis&lt;/font&gt;&lt;/div&gt;&lt;div style=&quot;forced-color-adjust: none; color: rgb(0, 0, 0); font-family: Helvetica; font-style: normal; font-variant-ligatures: normal; font-variant-caps: normal; font-weight: 400; letter-spacing: normal; orphans: 2; text-indent: 0px; text-transform: none; widows: 2; word-spacing: 0px; -webkit-text-stroke-width: 0px; white-space: nowrap; background-color: rgb(251, 251, 251); text-decoration-thickness: initial; text-decoration-style: initial; text-decoration-color: initial; line-height: 110%;&quot;&gt;&lt;font style=&quot;forced-color-adjust: none; line-height: 110%;&quot;&gt;datetime-id&lt;/font&gt;&lt;/div&gt;&lt;div style=&quot;forced-color-adjust: none; color: rgb(0, 0, 0); font-family: Helvetica; font-style: normal; font-variant-ligatures: normal; font-variant-caps: normal; font-weight: 400; letter-spacing: normal; orphans: 2; text-indent: 0px; text-transform: none; widows: 2; word-spacing: 0px; -webkit-text-stroke-width: 0px; white-space: nowrap; background-color: rgb(251, 251, 251); text-decoration-thickness: initial; text-decoration-style: initial; text-decoration-color: initial; line-height: 110%;&quot;&gt;&lt;div style=&quot;forced-color-adjust: none;&quot;&gt;&lt;div style=&quot;forced-color-adjust: none;&quot;&gt;&lt;font style=&quot;forced-color-adjust: none; line-height: 110%;&quot;&gt;date-in&lt;/font&gt;&lt;/div&gt;&lt;div style=&quot;forced-color-adjust: none;&quot;&gt;&lt;font style=&quot;forced-color-adjust: none; line-height: 110%;&quot;&gt;date-out&lt;/font&gt;&lt;/div&gt;&lt;/div&gt;&lt;div style=&quot;forced-color-adjust: none;&quot;&gt;&lt;font style=&quot;forced-color-adjust: none; line-height: 110%;&quot;&gt;acc-amount&lt;/font&gt;&lt;/div&gt;&lt;/div&gt;&lt;div style=&quot;forced-color-adjust: none; color: rgb(0, 0, 0); font-family: Helvetica; font-style: normal; font-variant-ligatures: normal; font-variant-caps: normal; font-weight: 400; letter-spacing: normal; orphans: 2; text-indent: 0px; text-transform: none; widows: 2; word-spacing: 0px; -webkit-text-stroke-width: 0px; white-space: nowrap; background-color: rgb(251, 251, 251); text-decoration-thickness: initial; text-decoration-style: initial; text-decoration-color: initial; line-height: 110%;&quot;&gt;bed-charges&lt;/div&gt;" style="text;whiteSpace=wrap;html=1;align=center;fontSize=17;" vertex="1" parent="buUf2vuJPlwVmImWlEwj-42">
          <mxGeometry x="45" y="40" width="110" height="200" as="geometry" />
        </mxCell>
        <mxCell id="buUf2vuJPlwVmImWlEwj-44" style="edgeStyle=orthogonalEdgeStyle;rounded=0;orthogonalLoop=1;jettySize=auto;html=1;exitX=0;exitY=0.5;exitDx=0;exitDy=0;entryX=1;entryY=0.75;entryDx=0;entryDy=0;" edge="1" parent="1" source="buUf2vuJPlwVmImWlEwj-45" target="buUf2vuJPlwVmImWlEwj-42">
          <mxGeometry relative="1" as="geometry" />
        </mxCell>
        <mxCell id="buUf2vuJPlwVmImWlEwj-45" value="&lt;font style=&quot;font-size: 18px;&quot;&gt;Bed Table&lt;/font&gt;" style="swimlane;whiteSpace=wrap;html=1;" vertex="1" parent="1">
          <mxGeometry x="1660" y="630" width="200" height="150" as="geometry" />
        </mxCell>
        <mxCell id="buUf2vuJPlwVmImWlEwj-46" value="&lt;font&gt;room-number&lt;/font&gt;&lt;div&gt;bed-detail-id&lt;div&gt;&lt;span style=&quot;background-color: transparent; color: light-dark(rgb(0, 0, 0), rgb(255, 255, 255));&quot;&gt;status&lt;/span&gt;&lt;/div&gt;&lt;div&gt;&lt;div style=&quot;&quot;&gt;&lt;br&gt;&lt;/div&gt;&lt;/div&gt;&lt;/div&gt;" style="text;html=1;align=center;verticalAlign=middle;resizable=0;points=[];autosize=1;strokeColor=none;fillColor=none;fontSize=18;" vertex="1" parent="buUf2vuJPlwVmImWlEwj-45">
          <mxGeometry x="35" y="40" width="130" height="100" as="geometry" />
        </mxCell>
        <mxCell id="buUf2vuJPlwVmImWlEwj-47" style="edgeStyle=orthogonalEdgeStyle;rounded=0;orthogonalLoop=1;jettySize=auto;html=1;exitX=1;exitY=0.5;exitDx=0;exitDy=0;entryX=0;entryY=0.75;entryDx=0;entryDy=0;" edge="1" parent="1" source="buUf2vuJPlwVmImWlEwj-48" target="buUf2vuJPlwVmImWlEwj-42">
          <mxGeometry relative="1" as="geometry" />
        </mxCell>
        <mxCell id="buUf2vuJPlwVmImWlEwj-48" value="&lt;font style=&quot;font-size: 18px;&quot;&gt;Test Table&lt;/font&gt;" style="swimlane;whiteSpace=wrap;html=1;" vertex="1" parent="1">
          <mxGeometry x="1130" y="630" width="200" height="155" as="geometry" />
        </mxCell>
        <mxCell id="buUf2vuJPlwVmImWlEwj-49" value="test-id&lt;div&gt;type-id&lt;br&gt;&lt;div&gt;test name&lt;/div&gt;&lt;div&gt;result&lt;/div&gt;&lt;div&gt;date&lt;/div&gt;&lt;div&gt;time&lt;/div&gt;&lt;/div&gt;" style="text;html=1;align=center;verticalAlign=middle;resizable=0;points=[];autosize=1;strokeColor=none;fillColor=none;fontSize=18;" vertex="1" parent="buUf2vuJPlwVmImWlEwj-48">
          <mxGeometry x="50" y="15" width="100" height="140" as="geometry" />
        </mxCell>
        <mxCell id="buUf2vuJPlwVmImWlEwj-50" style="edgeStyle=orthogonalEdgeStyle;rounded=0;orthogonalLoop=1;jettySize=auto;html=1;exitX=1;exitY=0.5;exitDx=0;exitDy=0;entryX=0;entryY=0.25;entryDx=0;entryDy=0;" edge="1" parent="1" source="buUf2vuJPlwVmImWlEwj-51" target="buUf2vuJPlwVmImWlEwj-42">
          <mxGeometry relative="1" as="geometry" />
        </mxCell>
        <mxCell id="buUf2vuJPlwVmImWlEwj-51" value="&lt;font style=&quot;font-size: 18px;&quot;&gt;Patient Table&lt;/font&gt;" style="swimlane;whiteSpace=wrap;html=1;" vertex="1" parent="1">
          <mxGeometry x="1130" y="380" width="200" height="130" as="geometry" />
        </mxCell>
        <mxCell id="buUf2vuJPlwVmImWlEwj-52" value="patient-id&lt;div&gt;name&lt;/div&gt;&lt;div&gt;age&lt;/div&gt;&lt;div&gt;gender-id&lt;/div&gt;" style="text;html=1;align=center;verticalAlign=middle;resizable=0;points=[];autosize=1;strokeColor=none;fillColor=none;fontSize=18;" vertex="1" parent="buUf2vuJPlwVmImWlEwj-51">
          <mxGeometry x="50" y="30" width="100" height="100" as="geometry" />
        </mxCell>
        <mxCell id="buUf2vuJPlwVmImWlEwj-53" style="edgeStyle=orthogonalEdgeStyle;rounded=0;orthogonalLoop=1;jettySize=auto;html=1;exitX=0;exitY=0.5;exitDx=0;exitDy=0;entryX=1;entryY=0.25;entryDx=0;entryDy=0;" edge="1" parent="1" source="buUf2vuJPlwVmImWlEwj-54" target="buUf2vuJPlwVmImWlEwj-42">
          <mxGeometry relative="1" as="geometry" />
        </mxCell>
        <mxCell id="buUf2vuJPlwVmImWlEwj-54" value="Doctor Table" style="swimlane;whiteSpace=wrap;html=1;fontSize=18;" vertex="1" parent="1">
          <mxGeometry x="1660" y="380" width="200" height="150" as="geometry" />
        </mxCell>
        <mxCell id="buUf2vuJPlwVmImWlEwj-55" value="&lt;div&gt;&lt;font&gt;doctor-id&lt;/font&gt;&lt;/div&gt;&lt;div&gt;&lt;font&gt;name&lt;/font&gt;&lt;/div&gt;&lt;div&gt;&lt;font&gt;specialization-id&lt;/font&gt;&lt;/div&gt;&lt;div&gt;&lt;font&gt;phoneno&lt;/font&gt;&lt;/div&gt;&lt;div&gt;&lt;div style=&quot;&quot;&gt;&lt;font style=&quot;&quot;&gt;&lt;font&gt;fee&lt;/font&gt;&lt;br&gt;&lt;/font&gt;&lt;/div&gt;&lt;/div&gt;" style="text;html=1;align=center;verticalAlign=middle;resizable=0;points=[];autosize=1;strokeColor=none;fillColor=none;fontSize=18;" vertex="1" parent="buUf2vuJPlwVmImWlEwj-54">
          <mxGeometry x="25" y="30" width="150" height="120" as="geometry" />
        </mxCell>
        <mxCell id="buUf2vuJPlwVmImWlEwj-56" style="edgeStyle=orthogonalEdgeStyle;rounded=0;orthogonalLoop=1;jettySize=auto;html=1;exitX=0.5;exitY=1;exitDx=0;exitDy=0;entryX=0.5;entryY=0;entryDx=0;entryDy=0;" edge="1" parent="1" source="buUf2vuJPlwVmImWlEwj-57" target="buUf2vuJPlwVmImWlEwj-42">
          <mxGeometry relative="1" as="geometry" />
        </mxCell>
        <mxCell id="buUf2vuJPlwVmImWlEwj-57" value="&lt;font style=&quot;font-size: 18px;&quot;&gt;Datetime Table&lt;/font&gt;" style="swimlane;whiteSpace=wrap;html=1;" vertex="1" parent="1">
          <mxGeometry x="1395" y="130" width="200" height="240" as="geometry" />
        </mxCell>
        <mxCell id="buUf2vuJPlwVmImWlEwj-58" value="&lt;div&gt;datetime-id&lt;/div&gt;&lt;div&gt;date-id&lt;/div&gt;&lt;div&gt;time-id&lt;/div&gt;" style="text;html=1;align=center;verticalAlign=middle;resizable=0;points=[];autosize=1;strokeColor=none;fillColor=none;fontSize=18;" vertex="1" parent="buUf2vuJPlwVmImWlEwj-57">
          <mxGeometry x="45" y="85" width="110" height="80" as="geometry" />
        </mxCell>
        <mxCell id="buUf2vuJPlwVmImWlEwj-59" style="edgeStyle=orthogonalEdgeStyle;rounded=0;orthogonalLoop=1;jettySize=auto;html=1;exitX=0;exitY=0.5;exitDx=0;exitDy=0;entryX=1;entryY=0.5;entryDx=0;entryDy=0;" edge="1" parent="1" source="buUf2vuJPlwVmImWlEwj-60" target="buUf2vuJPlwVmImWlEwj-54">
          <mxGeometry relative="1" as="geometry" />
        </mxCell>
        <mxCell id="buUf2vuJPlwVmImWlEwj-60" value="Specialization Table" style="swimlane;whiteSpace=wrap;html=1;fontSize=18;" vertex="1" parent="1">
          <mxGeometry x="1940" y="380" width="200" height="150" as="geometry" />
        </mxCell>
        <mxCell id="buUf2vuJPlwVmImWlEwj-61" value="&lt;div&gt;&lt;div&gt;specialization&lt;/div&gt;&lt;/div&gt;&lt;div&gt;&lt;br&gt;&lt;/div&gt;" style="text;html=1;align=center;verticalAlign=middle;resizable=0;points=[];autosize=1;strokeColor=none;fillColor=none;fontSize=18;" vertex="1" parent="buUf2vuJPlwVmImWlEwj-60">
          <mxGeometry x="35" y="60" width="130" height="60" as="geometry" />
        </mxCell>
        <mxCell id="buUf2vuJPlwVmImWlEwj-62" style="edgeStyle=orthogonalEdgeStyle;rounded=0;orthogonalLoop=1;jettySize=auto;html=1;exitX=0.5;exitY=1;exitDx=0;exitDy=0;entryX=0;entryY=0.5;entryDx=0;entryDy=0;" edge="1" parent="1" source="buUf2vuJPlwVmImWlEwj-63" target="buUf2vuJPlwVmImWlEwj-57">
          <mxGeometry relative="1" as="geometry" />
        </mxCell>
        <mxCell id="buUf2vuJPlwVmImWlEwj-63" value="&lt;font style=&quot;font-size: 18px;&quot;&gt;Date Table&lt;/font&gt;" style="swimlane;whiteSpace=wrap;html=1;" vertex="1" parent="1">
          <mxGeometry x="1170" y="-110" width="200" height="240" as="geometry" />
        </mxCell>
        <mxCell id="buUf2vuJPlwVmImWlEwj-64" value="date-id&lt;div&gt;examine-date&lt;/div&gt;&lt;div&gt;bed-datein&lt;/div&gt;&lt;div&gt;bed-dateout&lt;/div&gt;&lt;div&gt;&lt;br&gt;&lt;/div&gt;" style="text;html=1;align=center;verticalAlign=middle;resizable=0;points=[];autosize=1;strokeColor=none;fillColor=none;fontSize=18;" vertex="1" parent="buUf2vuJPlwVmImWlEwj-63">
          <mxGeometry x="35" y="65" width="130" height="120" as="geometry" />
        </mxCell>
        <mxCell id="buUf2vuJPlwVmImWlEwj-65" style="edgeStyle=orthogonalEdgeStyle;rounded=0;orthogonalLoop=1;jettySize=auto;html=1;exitX=0.5;exitY=1;exitDx=0;exitDy=0;entryX=1;entryY=0.5;entryDx=0;entryDy=0;" edge="1" parent="1" source="buUf2vuJPlwVmImWlEwj-66" target="buUf2vuJPlwVmImWlEwj-57">
          <mxGeometry relative="1" as="geometry" />
        </mxCell>
        <mxCell id="buUf2vuJPlwVmImWlEwj-66" value="&lt;font style=&quot;font-size: 18px;&quot;&gt;Time Table&lt;/font&gt;" style="swimlane;whiteSpace=wrap;html=1;startSize=23;" vertex="1" parent="1">
          <mxGeometry x="1625" y="-110" width="200" height="240" as="geometry" />
        </mxCell>
        <mxCell id="buUf2vuJPlwVmImWlEwj-67" value="time-id&lt;div&gt;&lt;span style=&quot;background-color: transparent; color: light-dark(rgb(0, 0, 0), rgb(255, 255, 255));&quot;&gt;examine-time&lt;/span&gt;&lt;/div&gt;&lt;div&gt;&lt;span style=&quot;background-color: transparent; color: light-dark(rgb(0, 0, 0), rgb(255, 255, 255));&quot;&gt;bed-timein&lt;/span&gt;&lt;/div&gt;&lt;div&gt;bed-timeout&lt;/div&gt;&lt;div&gt;&lt;br&gt;&lt;/div&gt;" style="text;html=1;align=center;verticalAlign=middle;resizable=0;points=[];autosize=1;strokeColor=none;fillColor=none;fontSize=18;" vertex="1" parent="buUf2vuJPlwVmImWlEwj-66">
          <mxGeometry x="35" y="65" width="130" height="120" as="geometry" />
        </mxCell>
        <mxCell id="buUf2vuJPlwVmImWlEwj-68" style="edgeStyle=orthogonalEdgeStyle;rounded=0;orthogonalLoop=1;jettySize=auto;html=1;exitX=1;exitY=0.5;exitDx=0;exitDy=0;entryX=0;entryY=0.5;entryDx=0;entryDy=0;" edge="1" parent="1" source="buUf2vuJPlwVmImWlEwj-69" target="buUf2vuJPlwVmImWlEwj-51">
          <mxGeometry relative="1" as="geometry" />
        </mxCell>
        <mxCell id="buUf2vuJPlwVmImWlEwj-69" value="&lt;font style=&quot;font-size: 18px;&quot;&gt;Gender&amp;nbsp; Table&lt;/font&gt;" style="swimlane;whiteSpace=wrap;html=1;startSize=23;" vertex="1" parent="1">
          <mxGeometry x="880" y="380" width="200" height="130" as="geometry" />
        </mxCell>
        <mxCell id="buUf2vuJPlwVmImWlEwj-70" value="&lt;div&gt;gender-id&lt;/div&gt;sex" style="text;html=1;align=center;verticalAlign=middle;resizable=0;points=[];autosize=1;strokeColor=none;fillColor=none;fontSize=18;" vertex="1" parent="buUf2vuJPlwVmImWlEwj-69">
          <mxGeometry x="50" y="50" width="100" height="60" as="geometry" />
        </mxCell>
        <mxCell id="buUf2vuJPlwVmImWlEwj-71" value="&lt;font style=&quot;font-size: 18px;&quot;&gt;Test Type Table&lt;/font&gt;" style="swimlane;whiteSpace=wrap;html=1;" vertex="1" parent="1">
          <mxGeometry x="1130" y="820" width="200" height="145" as="geometry" />
        </mxCell>
        <mxCell id="buUf2vuJPlwVmImWlEwj-72" value="type-id&lt;div&gt;test-type&lt;/div&gt;" style="text;html=1;align=center;verticalAlign=middle;resizable=0;points=[];autosize=1;strokeColor=none;fillColor=none;fontSize=18;" vertex="1" parent="buUf2vuJPlwVmImWlEwj-71">
          <mxGeometry x="55" y="55" width="90" height="60" as="geometry" />
        </mxCell>
        <mxCell id="buUf2vuJPlwVmImWlEwj-73" style="edgeStyle=orthogonalEdgeStyle;rounded=0;orthogonalLoop=1;jettySize=auto;html=1;exitX=0.5;exitY=0;exitDx=0;exitDy=0;entryX=0.512;entryY=1.019;entryDx=0;entryDy=0;entryPerimeter=0;" edge="1" parent="1" source="buUf2vuJPlwVmImWlEwj-71" target="buUf2vuJPlwVmImWlEwj-49">
          <mxGeometry relative="1" as="geometry" />
        </mxCell>
        <mxCell id="buUf2vuJPlwVmImWlEwj-74" style="edgeStyle=orthogonalEdgeStyle;rounded=0;orthogonalLoop=1;jettySize=auto;html=1;exitX=0.5;exitY=0;exitDx=0;exitDy=0;entryX=0.5;entryY=1;entryDx=0;entryDy=0;" edge="1" parent="1" source="buUf2vuJPlwVmImWlEwj-75" target="buUf2vuJPlwVmImWlEwj-45">
          <mxGeometry relative="1" as="geometry" />
        </mxCell>
        <mxCell id="buUf2vuJPlwVmImWlEwj-75" value="&lt;font style=&quot;font-size: 18px;&quot;&gt;Bed Detail Table&lt;/font&gt;" style="swimlane;whiteSpace=wrap;html=1;" vertex="1" parent="1">
          <mxGeometry x="1660" y="820" width="200" height="150" as="geometry" />
        </mxCell>
        <mxCell id="buUf2vuJPlwVmImWlEwj-76" value="&lt;div&gt;&lt;div style=&quot;&quot;&gt;bed-detail-id&lt;/div&gt;&lt;div style=&quot;&quot;&gt;type&lt;/div&gt;&lt;/div&gt;&lt;div style=&quot;&quot;&gt;ward&lt;/div&gt;&lt;div style=&quot;&quot;&gt;&lt;div&gt;price per hour&lt;/div&gt;&lt;div&gt;&lt;br&gt;&lt;/div&gt;&lt;/div&gt;" style="text;html=1;align=center;verticalAlign=middle;resizable=0;points=[];autosize=1;strokeColor=none;fillColor=none;fontSize=18;" vertex="1" parent="buUf2vuJPlwVmImWlEwj-75">
          <mxGeometry x="35" y="30" width="130" height="120" as="geometry" />
        </mxCell>
      </root>
    </mxGraphModel>
  </diagram>
</mxfile>
